<?xml version="1.0" encoding="utf-8"?>
<!-- Generator: Adobe Illustrator 19.0.0, SVG Export Plug-In . SVG Version: 6.00 Build 0)  -->
<svg version="1.1" id="Layer_1" xmlns="http://www.w3.org/2000/svg" xmlns:xlink="http://www.w3.org/1999/xlink" x="0px" y="0px"
	 viewBox="0 0 110.8 128.4" enable-background="new 0 0 110.8 128.4" xml:space="preserve">
<g id="XMLID_85_">
	<g id="XMLID_51_">
		<path id="XMLID_61_" fill="#27ADE3" d="M89,21.8c0-6.3-1.6-7.9-7.8-7.9c-21.5,0-43,0-64.5,0c-6.8,0-8.2,1.4-8.2,8.3
			c0,15,0,29.9,0,44.9c0,15.1,0,30.2,0,45.3c0,6.3,1.6,7.9,7.8,7.9c21.6,0,43.3,0,64.9,0c6.2,0,7.8-1.6,7.8-7.9
			C89,82.3,89,52.1,89,21.8z M11.8,20.9c0-2.3,0.9-3.6,3.4-3.6c6.1,0.1,12.1,0,18.6,0c0,5,0,9.9,0,14.8c-7.3,0-14.4,0-22,0
			C11.8,28,11.8,24.4,11.8,20.9z M81,117.1c-19.3,0-38.5,0-57.8,0c-2.8,0-5.6,0.3-8.3-0.1c-1.3-0.2-2.6-0.6-3-2.5
			c0.3-0.4,0.1-0.9,0.4-1.3c24.2,0,48.5,0,72.7,0C85.5,116.9,85.3,117.1,81,117.1z M85.3,109.4c-24.4,0-48.7,0-73.4,0
			c0-24.7,0-48.9,0-73.5c24.5,0,48.7,0,73.4,0C85.3,60.4,85.3,84.8,85.3,109.4z M85.7,22c-0.2,3.3,0,6.6,0,10.1c-16.2,0-31.9,0-48,0
			c0-5,0-9.6,0-14.5c1.2-0.1,2.2-0.3,3.3-0.3c13.3,0,26.6,0.1,39.9-0.1C84.5,17.2,85.9,18.4,85.7,22z"/>
		<path id="XMLID_58_" fill="#27ADE3" d="M49.5,94.6c14-0.6,25.4-12.6,24.9-26c-0.6-14.3-12.2-25.5-26.1-25.1
			c-14.1,0.5-25.4,12-25.1,25.7C23.4,83.4,35.5,95.2,49.5,94.6z M48.1,46.9c12-0.5,22.2,9.1,22.9,21.5c0.7,11.5-9.3,22.2-21.3,22.8
			c-12.1,0.6-22.6-9.1-23.3-21.6C25.8,57.9,35.8,47.4,48.1,46.9z"/>
		<path id="XMLID_55_" fill="#27ADE3" d="M48.6,87.2C58.6,87.2,67,79,67,69c0-9.8-8.6-18.4-18.4-18.3c-9.8,0.1-18,8.3-18.2,18.1
			C30.3,78.7,38.7,87.1,48.6,87.2z M48.7,54.1c8.1,0,15.1,7.1,15,15.2c-0.2,8.1-6.9,14.6-15.1,14.5C40.5,83.8,33.8,77,33.8,69
			C33.8,61,40.7,54.1,48.7,54.1z"/>
		<path id="XMLID_54_" fill="#27ADE3" d="M17.1,26.3h10.3c0.8,0,1.5-0.7,1.5-1.5c0-0.8-0.7-1.5-1.5-1.5H17.1c-0.8,0-1.5,0.7-1.5,1.5
			C15.6,25.6,16.3,26.3,17.1,26.3z"/>
		<path id="XMLID_53_" fill="#27ADE3" d="M77.3,23.2H67.1c-0.8,0-1.5,0.7-1.5,1.5c0,0.8,0.7,1.5,1.5,1.5h10.3c0.8,0,1.5-0.7,1.5-1.5
			C78.9,23.9,78.2,23.2,77.3,23.2z"/>
		<circle id="XMLID_52_" fill="#27ADE3" cx="47.7" cy="24.5" r="5.2"/>
	</g>
	<g id="XMLID_84_">
		<path id="XMLID_3_" fill="#FFFFFF" d="M87.6,38.5h-0.5c-7.1,0-12.9-5.8-12.9-12.9v-1.9c0-7.1,5.8-12.9,12.9-12.9h0.5
			c7.1,0,12.9,5.8,12.9,12.9v1.9C100.4,32.7,94.6,38.5,87.6,38.5z"/>
		
			<text id="XMLID_76_" transform="matrix(1 0 0 1 70.722 36.3262)" fill="#ED262F" font-family="'FontAwesome5FreeSolid'" font-size="31.544px">plus-circle</text>
	</g>
</g>
</svg>
