<?xml version="1.0" encoding="utf-8"?>
<!-- Generator: Adobe Illustrator 19.0.0, SVG Export Plug-In . SVG Version: 6.00 Build 0)  -->
<svg version="1.1" id="Layer_1" xmlns="http://www.w3.org/2000/svg" xmlns:xlink="http://www.w3.org/1999/xlink" x="0px" y="0px"
	 viewBox="0 0 149.5 116.9" enable-background="new 0 0 149.5 116.9" xml:space="preserve">
<g id="dWVQXM.tif">
	<g id="XMLID_126_">
		<path id="XMLID_167_" fill="#27ADE3" d="M123,5.3v2c4,0,6.8,2.4,7.7,6.6c1.5,6.8,3.1,13.6,4.6,20.3c1,4.6,2.1,9.2,3.1,13.8
			c0.8,3.4,1.6,6.8,2.3,10.1c0.3,1.4,0.7,2.9,1,4.3v2.5c-0.1,0.2-0.1,0.4-0.2,0.5c-0.2,0.6-0.4,1.2-0.7,1.7c-0.9,2-2.4,3.2-4.3,3.8
			c-1.9,0.5-3.8,1-5.9,1.5c-0.1,0-0.2,0.1-0.4,0.1c0-1.2,0-2.4,0-3.6c0-4,0-8,0-12.1c0-0.8,0.1-0.8,0.4-1c0.6-0.3,1.1-0.6,1.7-0.9
			c0.2-0.1,0.5-0.3,0.8-0.4l1.3-0.7l-0.3-1.4l-0.7-3.1c-0.5-2.3-1-4.6-1.5-6.9c-0.5-2.2-1-4.4-1.5-6.6c-0.7-3.1-1.4-6.2-2.1-9.3
			c-0.4-1.8-1.5-2.8-3.2-2.8c-5.2-0.2-9.2-2.5-12.1-7.1c-0.1-0.2-0.3-0.4-0.4-0.5l-0.1-0.1l-0.8-1l-1.2,0.3l-7,1.6L88.7,20
			l-10.6,2.4c-12.7,2.9-25.8,5.8-38.7,8.7c-1.6,0.4-3.4,1.1-3.7,4c0,0.1,0,0.5-0.1,0.8c-0.3,0-0.6,0-0.8,0h-0.1H18.5
			c0.1-2.7,2.1-5.4,4.8-6.2c3.3-1,6.7-1.7,10-2.5c0.9-0.2,1.7-0.4,2.6-0.6c18.2-4.1,36.4-8.2,54.7-12.3l19.6-4.4
			c1.1-0.3,2.3-0.5,3.4-0.8c2.4-0.5,4.8-1.1,7.3-1.6c0.8-0.2,1.5-0.2,2.2-0.2L123,5.3 M123,5.3c-0.8,0-1.7,0.1-2.6,0.3
			c-3.6,0.7-7.1,1.6-10.7,2.4c-24.7,5.6-49.5,11.2-74.2,16.8c-4.2,1-8.5,1.8-12.7,3.1c-4.3,1.3-7,6.1-6.1,10.1c0.5,0,1,0,1.5,0
			c5.5,0,11,0,16.5,0c0,0,0.1,0,0.1,0c2.5,0,2.7,0,2.9-2.6c0.2-1.5,0.8-1.9,2.2-2.2c16.4-3.7,32.9-7.4,49.3-11.1
			c7.3-1.6,14.5-3.3,21.8-4.9c0.2,0.2,0.3,0.3,0.4,0.5c3.2,5,7.7,7.8,13.7,8c1,0,1.1,0.5,1.3,1.3c1.2,5.3,2.4,10.6,3.6,15.9
			c0.7,3.3,1.5,6.7,2.2,10c-0.8,0.5-1.6,0.9-2.3,1.3c-1.2,0.6-1.5,1.5-1.5,2.8c0.1,5.5,0,11,0,16.5c0,0.5,0,1,0,1.7
			c3.1-0.8,6-1.4,8.8-2.2c2.6-0.7,4.4-2.4,5.6-4.8c0.4-0.9,0.7-1.8,1.1-2.7c0-1,0-2.1,0-3.1c-1.1-4.9-2.3-9.7-3.4-14.6
			c-2.6-11.4-5.1-22.7-7.7-34.1C131.5,8.2,127.8,5.3,123,5.3L123,5.3z"/>
		<path id="XMLID_164_" fill="#27ADE3" d="M63.4,44.4c16.7,0,33.4,0,50.1,0c4.2,0,7,2,8.1,5.9c0.2,0.8,0.2,1.8,0.2,2.7
			c0,5.6,0,11.3,0,16.9c0,10.3,0,20.9,0,31.4c0,4.8-2.9,7.6-5.9,8.3c-1.1,0.2-2.3,0.3-3.2,0.3c-9.6,0-19.3,0-28.9,0l-9.8,0l-9.6,0
			l-12.8,0l-12.9,0c-7.6,0-15.2,0-22.9,0c-3.4,0-5.6-1-7.2-3.1c-1.1-1.4-1.5-3-1.5-5.1c0-5,0-10,0-15c0-11.1,0-22.6,0-34
			c0-5,3.2-8.2,8.3-8.2C31.4,44.4,47.4,44.4,63.4,44.4 M28.6,104.7L28.6,104.7L28.6,104.7c6.8,0,13.6,0,20.4,0l7.7,0l7.7,0l7.3,0
			l7.3,0c7.2,0,14.4,0,21.6,0c0.7,0,2.7,0,3.6-2.4c1.8-4.7,5-7.7,9.9-9.1c1.8-0.5,2.7-1.6,2.6-3.4c0-8,0-16.3,0-25.3
			c0-1.8-0.9-3-2.6-3.5c-4.9-1.4-8.2-4.3-9.9-9c-0.6-1.7-1.8-2.5-3.6-2.5c-11.6,0-23.3,0-34.9,0c-12.4,0-24.9,0-37.3,0
			c-2.4,0-3.2,1.5-3.7,2.6c-1.8,4.6-5,7.5-9.8,8.9c-1.9,0.5-2.8,1.7-2.7,3.6c0,6.8,0.1,15.9,0,24.9c0,2.7,1.7,3.5,2.9,3.8
			c4.6,1.3,7.8,4.2,9.6,8.7C25.6,104.4,27.3,104.7,28.6,104.7 M63.4,42.4c-16,0-32,0-48,0c-6.2,0-10.3,4-10.3,10.2
			c-0.1,16.3,0,32.7,0,49c0,2.3,0.5,4.4,1.9,6.3c2.2,2.9,5.3,3.9,8.8,3.9c0,0,0,0,0,0c7.6,0,15.2,0,22.8,0c8.6,0,17.2,0,25.7,0
			c6.5,0,12.9,0,19.4,0c9.6,0,19.3,0,28.9,0c1.2,0,2.4-0.1,3.6-0.3c3.7-0.8,7.5-4.3,7.5-10.2c-0.1-16.1,0-32.2,0-48.3
			c0-1.1,0-2.2-0.3-3.2c-1.3-4.7-4.9-7.4-10-7.4C96.8,42.4,80.1,42.4,63.4,42.4L63.4,42.4z M28.6,102.7c-1.1,0-1.7-0.3-2.1-1.4
			c-2-5.1-5.6-8.5-10.9-9.9c-1.1-0.3-1.5-0.7-1.5-1.9c0.1-8.3,0-16.6,0-24.9c0-1,0.3-1.4,1.3-1.7c5.4-1.5,9.1-4.9,11.1-10.1
			c0.4-0.9,0.7-1.3,1.8-1.3c0,0,0,0,0,0c12.4,0,24.9,0,37.3,0c11.6,0,23.3,0,34.9,0c0,0,0,0,0,0c0.9,0,1.4,0.2,1.7,1.2
			c2,5.3,5.8,8.8,11.3,10.3c0.9,0.3,1.2,0.6,1.2,1.5c0,8.4,0,16.9,0,25.3c0,0.9-0.3,1.3-1.2,1.5c-5.5,1.5-9.3,5-11.2,10.3
			c-0.3,0.9-0.8,1.1-1.7,1.1c0,0,0,0,0,0c-7.2,0-14.4,0-21.6,0c-4.9,0-9.7,0-14.6,0c-5.1,0-10.3,0-15.4,0
			C42.2,102.7,35.4,102.7,28.6,102.7C28.6,102.7,28.6,102.7,28.6,102.7L28.6,102.7z"/>
		<path id="XMLID_163_" fill="#27ADE3" d="M80.1,35.3L80.1,35.3c1.4,0,2.8,0.2,4.1,0.6H76C77.3,35.5,78.6,35.3,80.1,35.3 M80.1,33.3
			c-4.5,0-8.7,1.7-11.1,4.6c7.5,0,14.9,0,22.7,0C88.3,34.6,84.1,33.3,80.1,33.3L80.1,33.3z"/>
		<path id="XMLID_159_" fill="#27ADE3" d="M64.5,60.1v2c0.1,0,0.3,0,0.4,0c8.4,0.2,14.8,7,14.6,15.5c-0.2,7.9-7,14.5-14.8,14.5
			c-0.1,0-0.2,0-0.4,0c-8.6-0.2-15.1-7.1-14.9-15.6c0.2-8,6.9-14.4,15-14.4L64.5,60.1 M64.5,60.1c-9.1,0-16.8,7.3-17,16.4
			c-0.2,9.6,7.2,17.4,16.8,17.6c0.1,0,0.3,0,0.4,0c8.8,0,16.5-7.5,16.8-16.4c0.2-9.5-7.1-17.3-16.6-17.5
			C64.8,60.1,64.6,60.1,64.5,60.1L64.5,60.1z"/>
	</g>
</g>
</svg>
