<?xml version="1.0" encoding="utf-8"?>
<!-- Generator: Adobe Illustrator 19.0.0, SVG Export Plug-In . SVG Version: 6.00 Build 0)  -->
<svg version="1.1" id="Layer_1" xmlns="http://www.w3.org/2000/svg" xmlns:xlink="http://www.w3.org/1999/xlink" x="0px" y="0px"
	 viewBox="0 0 150 121.1" enable-background="new 0 0 150 121.1" xml:space="preserve">
<g id="XMLID_75_">
	<g id="o3Adta.tif">
		<g id="XMLID_50_">
			<path id="XMLID_565_" fill="#27ADE3" d="M15.2,96.5c8.8,0.8,17,2.3,24.5,6.5c4.2,2.4,8.6,4.3,13.1,6.2c9.2,3.8,18.4,4.2,27.9,0.6
				c14.2-5.3,27.3-12.6,40.3-20.3c5.6-3.3,10.8-7.1,16-11c1.4-1.1,2.9-3.7,2.5-5c-0.9-2.4-3.7-2.4-5.9-1.5
				c-7.1,2.8-14.2,5.6-21.2,8.7c-4.4,2-8.6,4.4-12.8,6.7c-1.4,0.7-2.8,1-3.4-0.7c-0.2-0.7,0.6-2.3,1.4-2.7
				c9.8-4.9,19.5-9.7,29.4-14.3c2.7-1.2,5.9-1.6,8.9-1.9c3.2-0.3,6.1,0.9,7.6,4.1c1.5,3.1,0.3,6-2.1,8c-4.9,4-10,8.1-15.4,11.4
				c-13.3,8.1-26.9,15.5-41.3,21.5c-12.5,5.1-24.5,4.4-36.6-1c-3.4-1.5-6.8-3.1-10.1-5c-7-4.1-14.7-5.4-22.6-6.1
				c-0.7-0.1-1.5,0.1-2-0.2c-0.8-0.5-1.4-1.4-2-2.1c0.8-0.6,1.5-1.3,2.3-1.6C14.2,96.3,15,96.5,15.2,96.5z"/>
			<path id="XMLID_564_" fill="#27ADE3" d="M39.2,58.6c4.9-0.1,9.4,1.1,13.6,3.4c8.6,4.7,17.4,9.1,25.9,14.1
				c4.6,2.7,8.7,6.3,12.9,9.7c1.2,1,2.1,2.6,2.7,4.1c2.2,5.3-0.9,10.1-6.6,9.8c-3.4-0.2-6.8-1.2-10-2.1c-8.7-2.6-17.2-5.4-25.9-8
				c-2-0.6-4.3-0.7-6.4-1c-1.5-0.2-3.2-0.2-3.1-2.3c0.2-2.3,2.1-1.9,3.4-1.6c7.7,1.8,15.4,3.7,23.1,5.8c4.6,1.3,9.1,3,13.7,4.5
				c1.4,0.4,2.9,0.9,4.3,0.8c1.2,0,3.1-0.4,3.5-1.3c0.5-1.1,0.3-3-0.4-4c-1.5-2.1-3.3-4.3-5.4-5.7c-4.4-3-9-5.5-13.7-8.1
				c-5-2.8-10.4-4.9-15-8.2c-9.2-6.5-18.8-7.1-29.2-3.7c-5.6,1.8-11.3,3.2-17.1,4.5c-1,0.2-2.9-0.5-3.2-1.2
				c-0.8-1.8,0.9-2.2,2.3-2.5c8.6-2.1,17.1-4.3,25.7-6.4C36,58.7,37.6,58.8,39.2,58.6z"/>
			<path id="XMLID_559_" fill="#27ADE3" d="M120.2,62.1c1.4,0.6,3.6,1.3,5.5,2.3c0.5,0.3,0.9,2.1,0.6,2.4c-0.6,0.6-2.1,1.1-2.6,0.8
				c-3.5-2.3-7-1.5-10.1,0.1c-6.6,3.4-13,7.3-19.5,11c-0.7,0.4-1.3,1.1-2,1.2c-1,0.1-2-0.4-3-0.6c0.3-0.9,0.4-2.2,1-2.6
				c3-2.1,6-4.3,9.2-5.9c5.7-2.9,11.5-5.4,17.3-8C117.4,62.3,118.4,62.4,120.2,62.1z"/>
			<path id="XMLID_557_" fill="#27ADE3" d="M105.4,59.1c1.5,0.3,2.6,0.2,3.4,0.7c0.6,0.4,1.1,1.4,1.1,2.1c0,0.5-1,1.4-1.5,1.4
				c-6.6-0.6-11,3.6-15.7,7.1c-2.3,1.7-4.5,3.5-6.9,5.1c-0.7,0.5-1.9,0.1-2.9,0.1c0.1-1.1-0.1-2.6,0.5-3.1c5.4-4,10.8-7.8,16.4-11.5
				C101.5,59.8,103.8,59.6,105.4,59.1z"/>
			<path id="XMLID_555_" fill="#27ADE3" d="M91.5,58.5c0.8,0.4,2.2,0.7,2.7,1.6c0.8,1.4,0,2.7-1.6,2.5c-3.9-0.3-6.4,1.9-8.9,4.3
				c-1.6,1.6-3.3,3.1-5.1,4.4c-0.6,0.4-2.1,0.4-2.5,0c-0.5-0.5-0.7-2.2-0.3-2.5c3.9-3.3,7.8-6.4,11.9-9.5
				C88.5,58.7,89.9,58.8,91.5,58.5z"/>
		</g>
	</g>
	<g id="XMLID_39_">
		<path id="XMLID_47_" fill="#27ADE3" d="M67.3,6.7C53.3,6.7,42,18.1,42,32s11.3,25.3,25.3,25.3S92.5,45.9,92.5,32
			S81.2,6.7,67.3,6.7z M67.3,54.3c-12.3,0-22.3-10-22.3-22.3S55,9.7,67.3,9.7s22.3,10,22.3,22.3S79.6,54.3,67.3,54.3z"/>
		<path id="XMLID_41_" fill="#27ADE3" d="M75.4,22.2h-2.3v5.9H65l-4.4-5.9h-1.8v5.9h-4.1v1.8h4.1v4.5h-4.1v1.8h4.1v6.8H61v-6.8h7.4
			l5.1,6.8h1.8v-6.8h4.9v-1.8h-4.9v-4.5h4.9v-1.8h-4.9V22.2z M61,26.3l1.4,1.8H61V26.3z M61,34.3v-4.5h2.7l3.4,4.5H61z M73.1,38.9
			l-2-2.7h2V38.9z M73.1,34.3h-3.4l-3.3-4.5h6.7V34.3z"/>
	</g>
</g>
</svg>
