<?xml version="1.0" encoding="utf-8"?>
<!-- Generator: Adobe Illustrator 19.0.0, SVG Export Plug-In . SVG Version: 6.00 Build 0)  -->
<svg version="1.1" id="Layer_1" xmlns="http://www.w3.org/2000/svg" xmlns:xlink="http://www.w3.org/1999/xlink" x="0px" y="0px"
	 viewBox="0 0 573.4 399.7" enable-background="new 0 0 573.4 399.7" xml:space="preserve">
<g id="XMLID_73_">
	<g id="XMLID_80_">
		<path id="XMLID_82_" fill="#3F4195" d="M537.1,281.3c4.8-4.2,8.9-7.6,12.7-11.3c2.5-2.5,5.2-3.5,9.2-2.5c-5.1,4.4-9.9,8.6-15,12.6
			c-2.3,1.8-2.2,2.9-0.2,4.7c5.5,5,10.8,10.2,16.5,15.8c-3.9,0.7-6.6,0.3-9.1-2.4c-4.2-4.5-8.8-8.6-14.1-13.7c0,6.1-0.1,11,0.1,15.8
			c0.1,2.8-0.8,3.6-3.6,3.6c-10.5,0.1-10.5,0.2-10.5-10.4c0-2.1,0-4.2,0-7.7c-10.1,19.2-25.7,25-45,21.6
			c-19.3-3.4-30.5-16-37.1-33.9c0,2.9,0,5.7,0,8.6c-0.1,18.3-0.3,36.6-2.1,54.9c-2.8,28.3-21.1,45-46.3,49.7
			c-18.6,3.4-37.1,3.2-55-3c-18.1-6.3-28.4-19.4-32.1-38c-0.5-2.4,0.1-2.9,2.4-2.9c6.8,0.1,13.5,0,20.3,0c1.4,0,2.5,0.1,2.9,1.7
			c4,17.1,16.5,23.5,32.3,25.4c9.6,1.2,19.1,0.6,28.4-2.3c18.2-5.9,27-18.1,28.1-39.1c0.2-3.4,0.2-6.8,0.2-10.1c0-9.7,0-19.4,0-29.1
			c-1.1-0.2-1.2,0.7-1.4,1.2c-12,22.3-31.3,31.5-55.9,30.5c-13.4-0.5-25.7-4.6-36.4-12.9c-2.1-1.6-2.5-2.6-0.7-4.9
			c3.2-3.9,6.1-8.1,9-12.2c0.8-1.1,1.2-1.9,2.8-0.7c30.9,22.6,68.4,10.8,79.4-25.3c5.1-16.6,5.1-33.4,0.1-50
			c-8.2-27.4-30.6-37.9-56.8-33.6c-3.2,0.5-4.4,0.1-5-3.3c-0.7-4-1.7-8-3.2-11.8c-1.2-3.1-0.1-3.7,2.7-4.3
			c35.7-7.7,73.9,16.5,83,52.7c1.7,6.6,2.6,13.3,3.2,20.3c6.5-17.8,16.9-31.6,36.4-35c19.1-3.3,35.2,1.8,45.8,20.9
			c0-5.9,0.1-10.6,0-15.3c-0.1-2.2,0.7-2.8,2.9-2.9c11.2-0.3,11.2-0.4,11.2,10.6c0,20.9,0,41.7,0,62.6
			C537.1,277.4,537.1,278.8,537.1,281.3z M523.2,252c0.1-3.7-0.2-7.9-1-12.1c-2.9-15.7-14.2-26.6-28.7-27.8
			c-17.9-1.4-30.3,6.5-35.8,23c-3.9,11.9-4,24.1-0.7,36.2c3.8,14.1,13.9,22.6,27.4,23.6c16.5,1.2,28-5.1,34.3-19
			C522.2,268.5,523.3,260.6,523.2,252z"/>
		<path id="XMLID_81_" fill="#FFFFFF" d="M523.2,252c0.1,8.6-1.1,16.5-4.4,23.9c-6.3,13.9-17.8,20.3-34.3,19
			c-13.5-1-23.6-9.5-27.4-23.6c-3.3-12.1-3.2-24.3,0.7-36.2c5.4-16.5,17.9-24.4,35.8-23c14.5,1.1,25.8,12.1,28.7,27.8
			C523,244,523.4,248.2,523.2,252z"/>
	</g>
	<g id="XMLID_77_">
		<path id="XMLID_78_" fill="#3F4196" d="M153.8,305.5c54.9-7.2,89.7-43.7,97.3-81c-65.3,8.9-149.4,2.9-163.4-54.2
			c-16.5-67.6,78.1-155.8,78.1-155.8S63.3,64.6,24.6,161.3c-3.3,8.3-11.5,30.4-11.1,47.7c0.1,5.3,1.9,10.4,5.1,14.6
			C44.8,258.9,85.5,314.5,153.8,305.5z"/>
	</g>
	<g id="XMLID_71_">
		<path id="XMLID_79_" fill="#29ADE3" d="M97.6,148.1c0,0,117.2-22.5,144.2,24s-10.5,118.7-90.1,129.2
			c-79.6,10.5-138.2-90.1-138.2-90.1S30,355.4,180.2,364.4c150.2,9,199.8-150.6,148.7-221.7S202.8,47.5,97.6,148.1z"/>
	</g>
</g>
</svg>
